<?xml version="1.0" standalone="no"?>
<!DOCTYPE svg PUBLIC "-//W3C//DTD SVG 20010904//EN"
 "http://www.w3.org/TR/2001/REC-SVG-20010904/DTD/svg10.dtd">
<svg version="1.0" xmlns="http://www.w3.org/2000/svg"
 width="1280.000000pt" height="640.000000pt" viewBox="0 0 1280.000000 640.000000"
 preserveAspectRatio="xMidYMid meet">
<metadata>
Created by potrace 1.15, written by Peter Selinger 2001-2017
</metadata>
<g transform="translate(0.000000,640.000000) scale(0.100000,-0.100000)"
fill="#000000" stroke="none">
<path d="M0 5787 c0 -2 13 -49 30 -104 66 -224 190 -466 343 -673 39 -52 145
-170 236 -261 239 -238 487 -418 839 -608 125 -68 404 -201 420 -201 4 0 -42
28 -103 63 -516 295 -889 627 -1039 926 -30 58 -27 58 54 -4 226 -173 764
-539 1030 -702 967 -593 1848 -968 2744 -1168 110 -24 202 -43 204 -40 2 2
-16 9 -39 15 -95 25 -525 172 -719 245 -1140 431 -2237 1065 -3265 1888 -213
171 -397 328 -687 586 -27 24 -48 41 -48 38z"/>
<path d="M12695 5698 c-549 -493 -1145 -952 -1714 -1318 -880 -567 -1828
-1015 -2774 -1311 -148 -46 -210 -69 -147 -55 14 3 107 24 208 46 986 220
2044 699 3102 1403 168 112 492 340 625 440 55 42 101 74 103 72 8 -8 -77
-152 -138 -233 -176 -235 -516 -508 -910 -731 -69 -39 -122 -71 -118 -71 14 0
275 122 378 177 800 425 1272 930 1460 1565 17 55 29 102 28 104 -2 1 -48 -38
-103 -88z"/>
<path d="M110 4584 c0 -12 208 -234 310 -331 288 -274 504 -424 844 -588 231
-112 861 -386 885 -385 3 0 -75 42 -174 93 -99 51 -214 113 -255 137 -366 212
-729 505 -695 560 19 31 268 -30 704 -171 84 -27 155 -48 157 -46 2 2 -29 17
-68 32 -192 75 -816 333 -1003 415 -425 187 -522 228 -595 253 -41 14 -83 29
-92 32 -10 4 -18 3 -18 -1z"/>
<path d="M12580 4554 c-93 -34 -190 -75 -579 -248 -106 -47 -393 -168 -637
-268 -243 -100 -442 -183 -441 -185 2 -1 72 20 157 48 229 73 483 146 582 165
139 27 151 7 56 -93 -166 -174 -457 -372 -868 -590 -96 -51 -172 -93 -169 -93
7 0 334 137 524 220 185 80 492 231 596 293 178 105 384 264 579 450 97 92
310 318 310 330 0 10 -4 9 -110 -29z"/>
<path d="M2130 3903 c0 -17 74 -151 118 -213 65 -93 222 -250 327 -329 246
-185 624 -369 1069 -520 82 -28 154 -51 160 -51 6 0 -43 29 -109 64 -211 112
-413 234 -681 412 -143 95 -266 179 -272 187 -12 14 58 -5 563 -148 104 -29
191 -52 193 -51 3 4 -253 113 -585 250 -369 152 -549 242 -720 364 -35 24 -63
40 -63 35z"/>
<path d="M10565 3839 c-137 -93 -348 -200 -610 -309 -448 -185 -655 -273 -652
-276 1 -2 104 25 227 60 463 132 540 152 540 147 0 -8 -516 -352 -620 -413
-168 -100 -230 -135 -345 -195 -66 -34 -115 -63 -110 -63 19 0 329 107 456
158 545 218 879 439 1087 717 52 70 150 246 135 244 -4 -1 -53 -32 -108 -70z"/>
<path d="M250 3658 c154 -139 515 -381 736 -491 275 -137 656 -259 1243 -398
113 -27 206 -47 208 -45 2 1 -84 36 -189 76 -512 195 -848 354 -848 400 0 19
47 21 173 6 72 -9 251 -29 397 -46 146 -17 276 -33 290 -36 14 -3 22 -3 19 0
-3 4 -123 36 -265 72 -502 126 -676 176 -1016 288 -297 98 -495 157 -649 192
-147 33 -154 32 -99 -18z"/>
<path d="M12475 3681 c-152 -34 -321 -83 -605 -176 -426 -140 -595 -188 -1080
-309 -199 -50 -320 -85 -240 -71 40 7 796 95 820 95 32 0 37 -29 9 -51 -42
-34 -161 -95 -294 -154 -135 -60 -513 -211 -648 -260 -42 -15 -76 -29 -74 -31
5 -5 228 46 447 102 514 132 875 260 1113 396 236 136 439 277 661 460 l21 18
-25 -1 c-14 0 -61 -8 -105 -18z"/>
<path d="M2501 3153 c141 -253 363 -442 724 -618 194 -95 337 -152 545 -219
168 -54 440 -130 445 -124 2 2 -26 17 -63 33 -109 46 -467 226 -607 305 -150
84 -445 260 -445 264 0 4 412 -80 625 -128 83 -19 151 -33 153 -31 4 4 -121
48 -553 195 -377 129 -650 247 -794 344 -29 20 -55 36 -58 36 -2 0 10 -26 28
-57z"/>
<path d="M10245 3158 c-170 -103 -387 -197 -710 -308 -374 -128 -615 -213
-613 -216 2 -1 59 10 128 26 195 44 616 130 636 130 57 0 -687 -411 -988 -546
-59 -26 -106 -50 -104 -51 2 -2 77 16 167 41 727 200 1215 462 1450 778 57 77
124 187 118 192 -2 2 -40 -19 -84 -46z"/>
<path d="M3850 3075 c0 -20 87 -128 127 -158 56 -40 180 -104 290 -148 93 -38
333 -119 348 -119 5 1 -37 20 -95 44 -132 54 -239 108 -310 156 -55 38 -121
100 -106 100 11 0 253 -29 296 -35 108 -16 -126 61 -350 116 -91 22 -173 43
-182 45 -10 3 -18 3 -18 -1z"/>
<path d="M8761 3035 c-169 -43 -396 -113 -389 -121 2 -2 75 6 162 17 87 11
160 18 163 16 2 -3 -21 -27 -52 -55 -60 -53 -229 -145 -372 -203 -46 -18 -81
-34 -80 -36 5 -4 160 46 282 91 146 54 315 140 370 188 61 54 125 150 98 147
-5 0 -86 -20 -182 -44z"/>
<path d="M503 2757 c32 -27 272 -172 387 -235 296 -160 648 -283 995 -346 206
-37 717 -100 779 -95 6 0 -72 22 -174 48 -403 104 -633 178 -771 247 -65 32
-129 79 -129 93 0 4 89 11 198 14 268 9 739 36 782 45 27 6 3 11 -105 20 -534
48 -1198 125 -1475 171 -171 29 -288 44 -440 56 l-75 5 28 -23z"/>
<path d="M12220 2773 c-90 -7 -299 -34 -440 -58 -239 -41 -854 -112 -1440
-167 -105 -9 -127 -14 -100 -20 43 -9 506 -36 773 -45 108 -3 197 -10 197 -14
0 -32 -165 -120 -334 -178 -117 -41 -343 -105 -616 -176 -131 -33 -133 -34
-65 -29 427 32 876 107 1125 186 222 71 490 190 705 313 127 73 305 184 305
191 0 4 -27 3 -110 -3z"/>
<path d="M4109 2537 c68 -99 184 -169 401 -241 114 -38 372 -108 377 -102 2 2
-52 22 -119 45 -200 68 -418 184 -418 223 0 5 12 7 28 4 42 -8 298 -19 292
-12 -16 16 -523 126 -582 126 -5 0 4 -19 21 -43z"/>
<path d="M8555 2554 c-149 -28 -425 -93 -425 -101 0 -6 248 5 299 13 50 8 36
-13 -45 -68 -78 -53 -183 -102 -359 -164 -66 -24 -115 -43 -110 -43 6 -1 62
13 125 29 268 70 501 162 582 229 20 17 50 54 67 81 37 59 46 58 -134 24z"/>
<path d="M2900 2404 c0 -15 107 -139 173 -200 281 -260 761 -434 1461 -529
166 -22 288 -32 231 -18 -172 42 -581 184 -870 301 -261 106 -305 125 -301
130 3 2 173 -8 380 -23 207 -15 381 -25 387 -23 5 2 -124 30 -288 62 -552 108
-634 125 -770 161 -136 36 -295 91 -365 126 -21 11 -38 17 -38 13z"/>
<path d="M9788 2359 c-193 -78 -363 -119 -981 -240 -208 -40 -373 -75 -367
-77 10 -4 253 12 604 38 175 13 179 13 136 -9 -141 -74 -929 -362 -1098 -401
-155 -36 76 -16 358 31 505 84 862 203 1130 379 120 79 370 325 323 319 -4 -1
-52 -19 -105 -40z"/>
<path d="M4510 1970 c25 -29 65 -66 89 -82 90 -56 259 -110 496 -157 172 -33
212 -34 95 -2 -214 59 -353 117 -425 176 l-30 24 170 1 c98 0 164 4 155 9 -31
18 -337 65 -501 77 l-94 7 45 -53z"/>
<path d="M8120 2004 c-130 -16 -258 -37 -340 -56 -54 -13 -51 -13 113 -18
l169 -5 -24 -21 c-61 -55 -211 -117 -408 -169 -139 -37 -140 -43 -5 -19 219
38 427 95 526 145 66 33 107 65 149 120 l32 39 -49 -1 c-26 -1 -100 -7 -163
-15z"/>
<path d="M1060 1951 c0 -7 176 -122 260 -172 151 -88 348 -178 515 -234 273
-92 635 -133 1065 -121 200 5 578 31 587 40 1 1 -77 8 -175 15 -552 39 -996
118 -1219 217 -48 22 -55 28 -38 34 22 8 408 50 725 78 l195 18 -430 12 c-566
16 -964 45 -1357 100 -71 10 -128 16 -128 13z"/>
<path d="M11610 1938 c-383 -54 -786 -84 -1355 -100 -236 -7 -414 -14 -395
-16 276 -21 846 -80 880 -91 23 -8 21 -10 -33 -35 -221 -98 -656 -176 -1219
-218 -92 -6 -166 -13 -165 -14 1 -2 83 -11 182 -20 128 -12 277 -17 515 -18
293 0 356 3 501 22 356 48 641 147 964 335 56 32 236 148 254 163 12 10 -15 9
-129 -8z"/>
<path d="M3771 1551 c54 -41 190 -113 279 -146 176 -65 360 -102 615 -124 144
-13 623 -15 610 -3 -6 5 -59 14 -120 21 -200 22 -844 116 -852 125 -2 1 140
32 314 67 l318 64 -90 6 c-49 4 -317 7 -594 8 -493 1 -503 1 -480 -18z"/>
<path d="M7945 1561 l-80 -6 318 -64 c174 -35 316 -66 314 -67 -8 -9 -652
-103 -852 -125 -207 -23 -142 -31 195 -26 323 5 447 16 635 53 195 39 382 110
513 196 34 22 62 42 62 44 0 6 -1015 1 -1105 -5z"/>
<path d="M3185 1264 c-82 -18 -317 -69 -521 -114 -292 -63 -397 -90 -493 -127
-66 -25 -121 -49 -121 -53 0 -9 122 -45 225 -67 62 -13 134 -17 315 -17 214 0
254 3 447 32 214 32 774 132 848 151 l40 11 -45 -5 c-25 -2 -136 -13 -245 -24
-499 -50 -840 -54 -947 -10 -55 22 -40 31 187 108 77 27 201 65 275 86 74 21
155 43 180 51 82 23 7 12 -145 -22z"/>
<path d="M9441 1296 c2 -2 66 -20 143 -40 148 -39 430 -130 509 -165 28 -12
47 -26 45 -34 -19 -57 -446 -60 -973 -6 -104 10 -212 21 -240 24 -89 9 -35 -3
240 -54 317 -59 593 -103 795 -127 169 -19 446 -14 570 11 96 19 220 56 220
65 0 12 -241 99 -335 120 -115 27 -965 210 -973 210 -3 0 -3 -2 -1 -4z"/>
<path d="M4330 1027 c-617 -199 -1076 -360 -1103 -386 -11 -10 222 -31 348
-31 281 0 941 149 1609 361 103 33 186 62 184 64 -5 5 -147 -22 -263 -50 -496
-120 -784 -168 -1020 -169 -88 -1 -169 3 -179 7 -15 6 40 32 230 108 137 55
258 104 269 109 38 16 -9 9 -75 -13z"/>
<path d="M8381 1046 c6 -6 449 -182 492 -196 122 -39 -135 -53 -383 -21 -181
23 -483 82 -710 137 -166 41 -346 75 -333 64 12 -10 262 -89 528 -165 559
-161 1019 -255 1250 -255 122 0 368 21 358 30 -30 27 -468 182 -889 315 -280
88 -324 101 -313 91z"/>
</g>
</svg>
