<svg data-v-423bf9ae="" xmlns="http://www.w3.org/2000/svg" viewBox="0 0 169.91403359502144 60" class="font"><!----><!----><!----><g data-v-423bf9ae="" id="65b443f5-58fd-4ffc-b33f-4719f4f38a4d" fill="white" transform="matrix(5.730658879632186,0,0,5.730658879632186,-5.616047094480123,-2.5787959128532307)"><path d="M5.04 10.92Q3.86 10.92 2.94 10.18Q2.02 9.44 1.50 8.23Q0.98 7.01 0.98 5.68L0.98 5.68Q0.98 4.35 1.50 3.14Q2.02 1.93 2.94 1.19Q3.86 0.45 5.04 0.45L5.04 0.45Q6.22 0.45 7.14 1.19Q8.06 1.93 8.58 3.14Q9.10 4.35 9.10 5.68L9.10 5.68Q9.10 7.01 8.58 8.23Q8.06 9.44 7.14 10.18Q6.22 10.92 5.04 10.92L5.04 10.92ZM5.04 10.47Q6.41 10.47 7.01 9.22Q7.62 7.97 7.62 5.68L7.62 5.68Q7.62 3.39 7.01 2.14Q6.41 0.90 5.04 0.90L5.04 0.90Q3.67 0.90 3.07 2.14Q2.46 3.39 2.46 5.68L2.46 5.68Q2.46 7.97 3.07 9.22Q3.67 10.47 5.04 10.47L5.04 10.47ZM15.37 10.84L12.70 1.96L12.61 1.96L12.61 9.10Q12.61 9.62 12.86 9.92Q13.10 10.22 13.50 10.22L13.50 10.22L14 10.22L14 10.67L10.67 10.67L10.67 10.22L11.17 10.22Q11.56 10.22 11.81 9.92Q12.05 9.62 12.05 9.10L12.05 9.10L12.05 1.53Q12.05 1.33 11.96 1.24Q11.87 1.15 11.68 1.15L11.68 1.15L10.67 1.15L10.67 0.70L13.64 0.70L15.92 8.41L18.05 0.70L20.94 0.70L20.94 1.15L19.94 1.15Q19.74 1.15 19.65 1.24Q19.56 1.33 19.56 1.53L19.56 1.53L19.56 9.84Q19.56 10.22 19.94 10.22L19.94 10.22L20.94 10.22L20.94 10.67L16.88 10.67L16.88 10.22L17.89 10.22Q18.27 10.22 18.27 9.84L18.27 9.84L18.27 1.58L15.71 10.84L15.37 10.84ZM26.57 10.92Q25.40 10.92 24.47 10.18Q23.55 9.44 23.03 8.23Q22.51 7.01 22.51 5.68L22.51 5.68Q22.51 4.35 23.03 3.14Q23.55 1.93 24.47 1.19Q25.40 0.45 26.57 0.45L26.57 0.45Q27.75 0.45 28.67 1.19Q29.60 1.93 30.11 3.14Q30.63 4.35 30.63 5.68L30.63 5.68Q30.63 7.01 30.11 8.23Q29.60 9.44 28.67 10.18Q27.75 10.92 26.57 10.92L26.57 10.92ZM26.57 10.47Q27.94 10.47 28.55 9.22Q29.15 7.97 29.15 5.68L29.15 5.68Q29.15 3.39 28.55 2.14Q27.94 0.90 26.57 0.90L26.57 0.90Q25.20 0.90 24.60 2.14Q24.00 3.39 24.00 5.68L24.00 5.68Q24.00 7.97 24.60 9.22Q25.20 10.47 26.57 10.47L26.57 10.47Z"></path></g><!----><!----></svg>