<?xml version="1.0" encoding="iso-8859-1"?>
<!-- Uploaded to: SVG Repo, www.svgrepo.com, Generator: SVG Repo Mixer Tools -->
<svg fill="#000000" version="1.1" id="Layer_1" xmlns="http://www.w3.org/2000/svg" xmlns:xlink="http://www.w3.org/1999/xlink" 
	 viewBox="0 0 512 512" xml:space="preserve">
<g>
	<g>
		<rect y="357.518" width="78.049" height="27.095"/>
	</g>
</g>
<g>
	<g>
		<rect y="299.989" width="78.049" height="27.096"/>
	</g>
</g>
<g>
	<g>
		<rect y="242.45" width="78.049" height="27.095"/>
	</g>
</g>
<g>
	<g>
		<rect y="415.057" width="78.049" height="27.095"/>
	</g>
</g>
<g>
	<g>
		<rect x="108.483" y="127.383" width="78.049" height="27.095"/>
	</g>
</g>
<g>
	<g>
		<rect x="108.483" y="184.912" width="78.049" height="27.096"/>
	</g>
</g>
<g>
	<g>
		<rect x="108.483" y="299.989" width="78.049" height="27.096"/>
	</g>
</g>
<g>
	<g>
		<rect x="108.483" y="415.057" width="78.049" height="27.095"/>
	</g>
</g>
<g>
	<g>
		<rect x="108.483" y="357.518" width="78.049" height="27.095"/>
	</g>
</g>
<g>
	<g>
		<rect x="108.483" y="242.45" width="78.049" height="27.095"/>
	</g>
</g>
<g>
	<g>
		<rect x="216.975" y="69.848" width="78.05" height="27.095"/>
	</g>
</g>
<g>
	<g>
		<rect x="216.975" y="184.912" width="78.05" height="27.096"/>
	</g>
</g>
<g>
	<g>
		<rect x="216.975" y="357.518" width="78.05" height="27.095"/>
	</g>
</g>
<g>
	<g>
		<rect x="216.975" y="242.45" width="78.05" height="27.095"/>
	</g>
</g>
<g>
	<g>
		<rect x="216.975" y="299.989" width="78.05" height="27.096"/>
	</g>
</g>
<g>
	<g>
		<rect x="216.975" y="415.057" width="78.05" height="27.095"/>
	</g>
</g>
<g>
	<g>
		<rect x="216.975" y="127.383" width="78.05" height="27.095"/>
	</g>
</g>
<g>
	<g>
		<rect x="325.458" y="242.45" width="78.049" height="27.095"/>
	</g>
</g>
<g>
	<g>
		<rect x="325.458" y="184.912" width="78.049" height="27.096"/>
	</g>
</g>
<g>
	<g>
		<rect x="325.458" y="299.989" width="78.049" height="27.096"/>
	</g>
</g>
<g>
	<g>
		<rect x="325.458" y="357.518" width="78.049" height="27.095"/>
	</g>
</g>
<g>
	<g>
		<rect x="325.458" y="415.057" width="78.049" height="27.095"/>
	</g>
</g>
<g>
	<g>
		<rect x="433.951" y="242.45" width="78.049" height="27.095"/>
	</g>
</g>
<g>
	<g>
		<rect x="433.951" y="415.057" width="78.049" height="27.095"/>
	</g>
</g>
<g>
	<g>
		<rect x="433.951" y="357.518" width="78.049" height="27.095"/>
	</g>
</g>
<g>
	<g>
		<rect x="433.951" y="299.989" width="78.049" height="27.096"/>
	</g>
</g>
</svg>